<?xml version="1.0" encoding="UTF-8"?>
<!DOCTYPE svg
PUBLIC "-//W3C//DTD SVG 1.1//EN"
       "http://www.w3.org/Graphics/SVG/1.1/DTD/svg11.dtd">
<svg viewBox="71 -5 1271 1231" width="1200px" height="1236px" xmlns="http://www.w3.org/2000/svg" version="1.1">
   <line x1="91" y1="172" x2="81" y2="172" style="stroke:#333;stroke-width:1;"/>
   <line x1="82" y1="40" x2="92" y2="40" style="stroke:#333;stroke-width:1;"/>
   <line x1="81" y1="172" x2="82" y2="40" style="stroke:#333;stroke-width:1;"/>
   <line x1="83.5" y1="172" x2="87.035533905933" y2="175.53553390593" style="stroke:#333;stroke-width:2;"/>
   <line x1="83.5" y1="172" x2="87.035533905933" y2="168.46446609407" style="stroke:#333;stroke-width:2;"/>
   <line x1="87" y1="40" x2="83.464466094067" y2="43.535533905933" style="stroke:#333;stroke-width:2;"/>
   <line x1="87" y1="40" x2="83.464466094067" y2="36.464466094067" style="stroke:#333;stroke-width:2;"/>
   <line x1="253" y1="312" x2="263" y2="312" style="stroke:#b0b;stroke-width:1;"/>
   <line x1="442" y1="423" x2="452" y2="423" style="stroke:#b0b;stroke-width:1;"/>
   <line x1="263" y1="312" x2="442" y2="423" style="stroke:#b0b;stroke-width:1;"/>
   <line x1="260.5" y1="312" x2="256.96446609407" y2="315.53553390593" style="stroke:#b0b;stroke-width:2;"/>
   <line x1="260.5" y1="312" x2="256.96446609407" y2="308.46446609407" style="stroke:#b0b;stroke-width:2;"/>
   <line x1="447" y1="423" x2="443.46446609407" y2="426.53553390593" style="stroke:#b0b;stroke-width:2;"/>
   <line x1="447" y1="423" x2="443.46446609407" y2="419.46446609407" style="stroke:#b0b;stroke-width:2;"/>
   <line x1="253" y1="292" x2="263" y2="292" style="stroke:#0bf;stroke-width:1;"/>
   <line x1="470" y1="228" x2="480" y2="228" style="stroke:#0bf;stroke-width:1;"/>
   <line x1="263" y1="292" x2="470" y2="228" style="stroke:#0bf;stroke-width:1;"/>
   <line x1="260.5" y1="292" x2="256.96446609407" y2="295.53553390593" style="stroke:#0bf;stroke-width:2;"/>
   <line x1="260.5" y1="292" x2="256.96446609407" y2="288.46446609407" style="stroke:#0bf;stroke-width:2;"/>
   <line x1="475" y1="228" x2="471.46446609407" y2="231.53553390593" style="stroke:#0bf;stroke-width:2;"/>
   <line x1="475" y1="228" x2="471.46446609407" y2="224.46446609407" style="stroke:#0bf;stroke-width:2;"/>
   <line x1="206" y1="647" x2="216" y2="647" style="stroke:#b0b;stroke-width:1;"/>
   <line x1="442" y1="423" x2="452" y2="423" style="stroke:#b0b;stroke-width:1;"/>
   <line x1="216" y1="647" x2="442" y2="423" style="stroke:#b0b;stroke-width:1;"/>
   <line x1="213.5" y1="647" x2="209.96446609407" y2="650.53553390593" style="stroke:#b0b;stroke-width:2;"/>
   <line x1="213.5" y1="647" x2="209.96446609407" y2="643.46446609407" style="stroke:#b0b;stroke-width:2;"/>
   <line x1="447" y1="423" x2="443.46446609407" y2="426.53553390593" style="stroke:#b0b;stroke-width:2;"/>
   <line x1="447" y1="423" x2="443.46446609407" y2="419.46446609407" style="stroke:#b0b;stroke-width:2;"/>
   <line x1="206" y1="627" x2="216" y2="627" style="stroke:#cb0;stroke-width:1;"/>
   <line x1="470" y1="228" x2="480" y2="228" style="stroke:#cb0;stroke-width:1;"/>
   <line x1="216" y1="627" x2="470" y2="228" style="stroke:#cb0;stroke-width:1;"/>
   <line x1="213.5" y1="627" x2="209.96446609407" y2="630.53553390593" style="stroke:#cb0;stroke-width:2;"/>
   <line x1="213.5" y1="627" x2="209.96446609407" y2="623.46446609407" style="stroke:#cb0;stroke-width:2;"/>
   <line x1="475" y1="228" x2="471.46446609407" y2="231.53553390593" style="stroke:#cb0;stroke-width:2;"/>
   <line x1="475" y1="228" x2="471.46446609407" y2="224.46446609407" style="stroke:#cb0;stroke-width:2;"/>
   <line x1="90" y1="364" x2="80" y2="364" style="stroke:#0bf;stroke-width:1;"/>
   <line x1="81" y1="152" x2="91" y2="152" style="stroke:#0bf;stroke-width:1;"/>
   <line x1="80" y1="364" x2="81" y2="152" style="stroke:#0bf;stroke-width:1;"/>
   <line x1="82.5" y1="364" x2="86.035533905933" y2="367.53553390593" style="stroke:#0bf;stroke-width:2;"/>
   <line x1="82.5" y1="364" x2="86.035533905933" y2="360.46446609407" style="stroke:#0bf;stroke-width:2;"/>
   <line x1="86" y1="152" x2="82.464466094067" y2="155.53553390593" style="stroke:#0bf;stroke-width:2;"/>
   <line x1="86" y1="152" x2="82.464466094067" y2="148.46446609407" style="stroke:#0bf;stroke-width:2;"/>
   <line x1="557" y1="969" x2="567" y2="969" style="stroke:#b0b;stroke-width:1;"/>
   <line x1="756" y1="950" x2="766" y2="950" style="stroke:#b0b;stroke-width:1;"/>
   <line x1="567" y1="969" x2="756" y2="950" style="stroke:#b0b;stroke-width:1;"/>
   <line x1="564.5" y1="969" x2="560.96446609407" y2="972.53553390593" style="stroke:#b0b;stroke-width:2;"/>
   <line x1="564.5" y1="969" x2="560.96446609407" y2="965.46446609407" style="stroke:#b0b;stroke-width:2;"/>
   <line x1="761" y1="950" x2="757.46446609407" y2="953.53553390593" style="stroke:#b0b;stroke-width:2;"/>
   <line x1="761" y1="950" x2="757.46446609407" y2="946.46446609407" style="stroke:#b0b;stroke-width:2;"/>
   <line x1="557" y1="989" x2="567" y2="989" style="stroke:#bbb;stroke-width:1;"/>
   <line x1="591" y1="759" x2="581" y2="759" style="stroke:#bbb;stroke-width:1;"/>
   <line x1="567" y1="989" x2="591" y2="759" style="stroke:#bbb;stroke-width:1;"/>
   <line x1="564.5" y1="989" x2="560.96446609407" y2="992.53553390593" style="stroke:#bbb;stroke-width:2;"/>
   <line x1="564.5" y1="989" x2="560.96446609407" y2="985.46446609407" style="stroke:#bbb;stroke-width:2;"/>
   <line x1="586" y1="759" x2="589.53553390593" y2="762.53553390593" style="stroke:#bbb;stroke-width:2;"/>
   <line x1="586" y1="759" x2="589.53553390593" y2="755.46446609407" style="stroke:#bbb;stroke-width:2;"/>
   <line x1="557" y1="1069" x2="567" y2="1069" style="stroke:#bbb;stroke-width:1;"/>
   <line x1="773" y1="1039" x2="783" y2="1039" style="stroke:#bbb;stroke-width:1;"/>
   <line x1="567" y1="1069" x2="773" y2="1039" style="stroke:#bbb;stroke-width:1;"/>
   <line x1="564.5" y1="1069" x2="560.96446609407" y2="1072.5355339059" style="stroke:#bbb;stroke-width:2;"/>
   <line x1="564.5" y1="1069" x2="560.96446609407" y2="1065.4644660941" style="stroke:#bbb;stroke-width:2;"/>
   <line x1="778" y1="1039" x2="774.46446609407" y2="1042.5355339059" style="stroke:#bbb;stroke-width:2;"/>
   <line x1="778" y1="1039" x2="774.46446609407" y2="1035.4644660941" style="stroke:#bbb;stroke-width:2;"/>
   <line x1="557" y1="1049" x2="567" y2="1049" style="stroke:#c00;stroke-width:1;"/>
   <line x1="586" y1="228" x2="576" y2="228" style="stroke:#c00;stroke-width:1;"/>
   <line x1="567" y1="1049" x2="586" y2="228" style="stroke:#c00;stroke-width:1;"/>
   <line x1="564.5" y1="1049" x2="560.96446609407" y2="1052.5355339059" style="stroke:#c00;stroke-width:2;"/>
   <line x1="564.5" y1="1049" x2="560.96446609407" y2="1045.4644660941" style="stroke:#c00;stroke-width:2;"/>
   <line x1="581" y1="228" x2="584.53553390593" y2="231.53553390593" style="stroke:#c00;stroke-width:2;"/>
   <line x1="581" y1="228" x2="584.53553390593" y2="224.46446609407" style="stroke:#c00;stroke-width:2;"/>
   <line x1="591" y1="643" x2="601" y2="643" style="stroke:#0bf;stroke-width:1;"/>
   <line x1="756" y1="950" x2="766" y2="950" style="stroke:#0bf;stroke-width:1;"/>
   <line x1="601" y1="643" x2="756" y2="950" style="stroke:#0bf;stroke-width:1;"/>
   <line x1="598.5" y1="643" x2="594.96446609407" y2="646.53553390593" style="stroke:#0bf;stroke-width:2;"/>
   <line x1="598.5" y1="643" x2="594.96446609407" y2="639.46446609407" style="stroke:#0bf;stroke-width:2;"/>
   <line x1="761" y1="950" x2="757.46446609407" y2="953.53553390593" style="stroke:#0bf;stroke-width:2;"/>
   <line x1="761" y1="950" x2="757.46446609407" y2="946.46446609407" style="stroke:#0bf;stroke-width:2;"/>
   <line x1="591" y1="623" x2="601" y2="623" style="stroke:#b0b;stroke-width:1;"/>
   <line x1="591" y1="759" x2="581" y2="759" style="stroke:#b0b;stroke-width:1;"/>
   <line x1="601" y1="623" x2="591" y2="759" style="stroke:#b0b;stroke-width:1;"/>
   <line x1="598.5" y1="623" x2="594.96446609407" y2="626.53553390593" style="stroke:#b0b;stroke-width:2;"/>
   <line x1="598.5" y1="623" x2="594.96446609407" y2="619.46446609407" style="stroke:#b0b;stroke-width:2;"/>
   <line x1="586" y1="759" x2="589.53553390593" y2="762.53553390593" style="stroke:#b0b;stroke-width:2;"/>
   <line x1="586" y1="759" x2="589.53553390593" y2="755.46446609407" style="stroke:#b0b;stroke-width:2;"/>
   <line x1="452" y1="663" x2="442" y2="663" style="stroke:#c00;stroke-width:1;"/>
   <line x1="449" y1="889" x2="459" y2="889" style="stroke:#c00;stroke-width:1;"/>
   <line x1="442" y1="663" x2="449" y2="889" style="stroke:#c00;stroke-width:1;"/>
   <line x1="444.5" y1="663" x2="448.03553390593" y2="666.53553390593" style="stroke:#c00;stroke-width:2;"/>
   <line x1="444.5" y1="663" x2="448.03553390593" y2="659.46446609407" style="stroke:#c00;stroke-width:2;"/>
   <line x1="454" y1="889" x2="450.46446609407" y2="892.53553390593" style="stroke:#c00;stroke-width:2;"/>
   <line x1="454" y1="889" x2="450.46446609407" y2="885.46446609407" style="stroke:#c00;stroke-width:2;"/>
   <line x1="452" y1="683" x2="442" y2="683" style="stroke:#b0b;stroke-width:1;"/>
   <line x1="384" y1="58" x2="394" y2="58" style="stroke:#b0b;stroke-width:1;"/>
   <line x1="442" y1="683" x2="384" y2="58" style="stroke:#b0b;stroke-width:1;"/>
   <line x1="444.5" y1="683" x2="448.03553390593" y2="686.53553390593" style="stroke:#b0b;stroke-width:2;"/>
   <line x1="444.5" y1="683" x2="448.03553390593" y2="679.46446609407" style="stroke:#b0b;stroke-width:2;"/>
   <line x1="389" y1="58" x2="385.46446609407" y2="61.535533905933" style="stroke:#b0b;stroke-width:2;"/>
   <line x1="389" y1="58" x2="385.46446609407" y2="54.464466094067" style="stroke:#b0b;stroke-width:2;"/>
   <line x1="591" y1="463" x2="601" y2="463" style="stroke:#b0b;stroke-width:1;"/>
   <line x1="586" y1="228" x2="576" y2="228" style="stroke:#b0b;stroke-width:1;"/>
   <line x1="601" y1="463" x2="586" y2="228" style="stroke:#b0b;stroke-width:1;"/>
   <line x1="598.5" y1="463" x2="594.96446609407" y2="466.53553390593" style="stroke:#b0b;stroke-width:2;"/>
   <line x1="598.5" y1="463" x2="594.96446609407" y2="459.46446609407" style="stroke:#b0b;stroke-width:2;"/>
   <line x1="581" y1="228" x2="584.53553390593" y2="231.53553390593" style="stroke:#b0b;stroke-width:2;"/>
   <line x1="581" y1="228" x2="584.53553390593" y2="224.46446609407" style="stroke:#b0b;stroke-width:2;"/>
   <line x1="1091" y1="370" x2="1081" y2="370" style="stroke:#0bf;stroke-width:1;"/>
   <line x1="601" y1="423" x2="591" y2="423" style="stroke:#0bf;stroke-width:1;"/>
   <line x1="1081" y1="370" x2="601" y2="423" style="stroke:#0bf;stroke-width:1;"/>
   <line x1="1083.5" y1="370" x2="1087.0355339059" y2="373.53553390593" style="stroke:#0bf;stroke-width:2;"/>
   <line x1="1083.5" y1="370" x2="1087.0355339059" y2="366.46446609407" style="stroke:#0bf;stroke-width:2;"/>
   <line x1="596" y1="423" x2="599.53553390593" y2="426.53553390593" style="stroke:#0bf;stroke-width:2;"/>
   <line x1="596" y1="423" x2="599.53553390593" y2="419.46446609407" style="stroke:#0bf;stroke-width:2;"/>
   <line x1="1091" y1="390" x2="1081" y2="390" style="stroke:#0bf;stroke-width:1;"/>
   <line x1="586" y1="228" x2="576" y2="228" style="stroke:#0bf;stroke-width:1;"/>
   <line x1="1081" y1="390" x2="586" y2="228" style="stroke:#0bf;stroke-width:1;"/>
   <line x1="1083.5" y1="390" x2="1087.0355339059" y2="393.53553390593" style="stroke:#0bf;stroke-width:2;"/>
   <line x1="1083.5" y1="390" x2="1087.0355339059" y2="386.46446609407" style="stroke:#0bf;stroke-width:2;"/>
   <line x1="581" y1="228" x2="584.53553390593" y2="231.53553390593" style="stroke:#0bf;stroke-width:2;"/>
   <line x1="581" y1="228" x2="584.53553390593" y2="224.46446609407" style="stroke:#0bf;stroke-width:2;"/>
   <line x1="990" y1="752" x2="980" y2="752" style="stroke:#b0b;stroke-width:1;"/>
   <line x1="902" y1="950" x2="892" y2="950" style="stroke:#b0b;stroke-width:1;"/>
   <line x1="980" y1="752" x2="902" y2="950" style="stroke:#b0b;stroke-width:1;"/>
   <line x1="982.5" y1="752" x2="986.03553390593" y2="755.53553390593" style="stroke:#b0b;stroke-width:2;"/>
   <line x1="982.5" y1="752" x2="986.03553390593" y2="748.46446609407" style="stroke:#b0b;stroke-width:2;"/>
   <line x1="897" y1="950" x2="900.53553390593" y2="953.53553390593" style="stroke:#b0b;stroke-width:2;"/>
   <line x1="897" y1="950" x2="900.53553390593" y2="946.46446609407" style="stroke:#b0b;stroke-width:2;"/>
   <line x1="990" y1="772" x2="980" y2="772" style="stroke:#c00;stroke-width:1;"/>
   <line x1="591" y1="759" x2="581" y2="759" style="stroke:#c00;stroke-width:1;"/>
   <line x1="980" y1="772" x2="591" y2="759" style="stroke:#c00;stroke-width:1;"/>
   <line x1="982.5" y1="772" x2="986.03553390593" y2="775.53553390593" style="stroke:#c00;stroke-width:2;"/>
   <line x1="982.5" y1="772" x2="986.03553390593" y2="768.46446609407" style="stroke:#c00;stroke-width:2;"/>
   <line x1="586" y1="759" x2="589.53553390593" y2="762.53553390593" style="stroke:#c00;stroke-width:2;"/>
   <line x1="586" y1="759" x2="589.53553390593" y2="755.46446609407" style="stroke:#c00;stroke-width:2;"/>
   <line x1="91" y1="783" x2="81" y2="783" style="stroke:#0bf;stroke-width:1;"/>
   <line x1="76" y1="1049" x2="86" y2="1049" style="stroke:#0bf;stroke-width:1;"/>
   <line x1="81" y1="783" x2="76" y2="1049" style="stroke:#0bf;stroke-width:1;"/>
   <line x1="83.5" y1="783" x2="87.035533905933" y2="786.53553390593" style="stroke:#0bf;stroke-width:2;"/>
   <line x1="83.5" y1="783" x2="87.035533905933" y2="779.46446609407" style="stroke:#0bf;stroke-width:2;"/>
   <line x1="81" y1="1049" x2="77.464466094067" y2="1052.5355339059" style="stroke:#0bf;stroke-width:2;"/>
   <line x1="81" y1="1049" x2="77.464466094067" y2="1045.4644660941" style="stroke:#0bf;stroke-width:2;"/>
   <line x1="218" y1="963" x2="228" y2="963" style="stroke:#0b0;stroke-width:1;"/>
   <line x1="442" y1="423" x2="452" y2="423" style="stroke:#0b0;stroke-width:1;"/>
   <line x1="228" y1="963" x2="442" y2="423" style="stroke:#0b0;stroke-width:1;"/>
   <line x1="225.5" y1="963" x2="221.96446609407" y2="966.53553390593" style="stroke:#0b0;stroke-width:2;"/>
   <line x1="225.5" y1="963" x2="221.96446609407" y2="959.46446609407" style="stroke:#0b0;stroke-width:2;"/>
   <line x1="447" y1="423" x2="443.46446609407" y2="426.53553390593" style="stroke:#0b0;stroke-width:2;"/>
   <line x1="447" y1="423" x2="443.46446609407" y2="419.46446609407" style="stroke:#0b0;stroke-width:2;"/>
   <line x1="91" y1="803" x2="81" y2="803" style="stroke:#b0b;stroke-width:1;"/>
   <line x1="82" y1="40" x2="92" y2="40" style="stroke:#b0b;stroke-width:1;"/>
   <line x1="81" y1="803" x2="82" y2="40" style="stroke:#b0b;stroke-width:1;"/>
   <line x1="83.5" y1="803" x2="87.035533905933" y2="806.53553390593" style="stroke:#b0b;stroke-width:2;"/>
   <line x1="83.5" y1="803" x2="87.035533905933" y2="799.46446609407" style="stroke:#b0b;stroke-width:2;"/>
   <line x1="87" y1="40" x2="83.464466094067" y2="43.535533905933" style="stroke:#b0b;stroke-width:2;"/>
   <line x1="87" y1="40" x2="83.464466094067" y2="36.464466094067" style="stroke:#b0b;stroke-width:2;"/>
   <line x1="91" y1="703" x2="81" y2="703" style="stroke:#0bf;stroke-width:1;"/>
   <line x1="79" y1="978" x2="89" y2="978" style="stroke:#0bf;stroke-width:1;"/>
   <line x1="81" y1="703" x2="79" y2="978" style="stroke:#0bf;stroke-width:1;"/>
   <line x1="83.5" y1="703" x2="87.035533905933" y2="706.53553390593" style="stroke:#0bf;stroke-width:2;"/>
   <line x1="83.5" y1="703" x2="87.035533905933" y2="699.46446609407" style="stroke:#0bf;stroke-width:2;"/>
   <line x1="84" y1="978" x2="80.464466094067" y2="981.53553390593" style="stroke:#0bf;stroke-width:2;"/>
   <line x1="84" y1="978" x2="80.464466094067" y2="974.46446609407" style="stroke:#0bf;stroke-width:2;"/>
   <line x1="246" y1="100" x2="256" y2="100" style="stroke:#0b0;stroke-width:1;"/>
   <line x1="384" y1="58" x2="394" y2="58" style="stroke:#0b0;stroke-width:1;"/>
   <line x1="256" y1="100" x2="384" y2="58" style="stroke:#0b0;stroke-width:1;"/>
   <line x1="253.5" y1="100" x2="249.96446609407" y2="103.53553390593" style="stroke:#0b0;stroke-width:2;"/>
   <line x1="253.5" y1="100" x2="249.96446609407" y2="96.464466094067" style="stroke:#0b0;stroke-width:2;"/>
   <line x1="389" y1="58" x2="385.46446609407" y2="61.535533905933" style="stroke:#0b0;stroke-width:2;"/>
   <line x1="389" y1="58" x2="385.46446609407" y2="54.464466094067" style="stroke:#0b0;stroke-width:2;"/>
   <line x1="1142" y1="168" x2="1132" y2="168" style="stroke:#bbb;stroke-width:1;"/>
   <line x1="601" y1="423" x2="591" y2="423" style="stroke:#bbb;stroke-width:1;"/>
   <line x1="1132" y1="168" x2="601" y2="423" style="stroke:#bbb;stroke-width:1;"/>
   <line x1="1134.5" y1="168" x2="1138.0355339059" y2="171.53553390593" style="stroke:#bbb;stroke-width:2;"/>
   <line x1="1134.5" y1="168" x2="1138.0355339059" y2="164.46446609407" style="stroke:#bbb;stroke-width:2;"/>
   <line x1="596" y1="423" x2="599.53553390593" y2="426.53553390593" style="stroke:#bbb;stroke-width:2;"/>
   <line x1="596" y1="423" x2="599.53553390593" y2="419.46446609407" style="stroke:#bbb;stroke-width:2;"/>
   <line x1="1142" y1="148" x2="1132" y2="148" style="stroke:#cb0;stroke-width:1;"/>
   <line x1="586" y1="228" x2="576" y2="228" style="stroke:#cb0;stroke-width:1;"/>
   <line x1="1132" y1="148" x2="586" y2="228" style="stroke:#cb0;stroke-width:1;"/>
   <line x1="1134.5" y1="148" x2="1138.0355339059" y2="151.53553390593" style="stroke:#cb0;stroke-width:2;"/>
   <line x1="1134.5" y1="148" x2="1138.0355339059" y2="144.46446609407" style="stroke:#cb0;stroke-width:2;"/>
   <line x1="581" y1="228" x2="584.53553390593" y2="231.53553390593" style="stroke:#cb0;stroke-width:2;"/>
   <line x1="581" y1="228" x2="584.53553390593" y2="224.46446609407" style="stroke:#cb0;stroke-width:2;"/>
   <line x1="546" y1="1171" x2="556" y2="1171" style="stroke:#b0b;stroke-width:1;"/>
   <line x1="567" y1="889" x2="557" y2="889" style="stroke:#b0b;stroke-width:1;"/>
   <line x1="556" y1="1171" x2="567" y2="889" style="stroke:#b0b;stroke-width:1;"/>
   <line x1="553.5" y1="1171" x2="549.96446609407" y2="1174.5355339059" style="stroke:#b0b;stroke-width:2;"/>
   <line x1="553.5" y1="1171" x2="549.96446609407" y2="1167.4644660941" style="stroke:#b0b;stroke-width:2;"/>
   <line x1="562" y1="889" x2="565.53553390593" y2="892.53553390593" style="stroke:#b0b;stroke-width:2;"/>
   <line x1="562" y1="889" x2="565.53553390593" y2="885.46446609407" style="stroke:#b0b;stroke-width:2;"/>
   <rect width="162" height="20" x="91" y="122" style="fill:#007;stroke:black;"/>
   <text width="162" height="20" x="96" y="136" style="fill:#fff;" font-family="Arial" font-size="16px"> eff_1_manpower_count</text>
   <rect width="162" height="20" x="91" y="142" style="fill:#aea;stroke:black;"/>
   <text width="162" height="20" x="96" y="156" style="fill:black;" font-family="Arial" font-size="16px">ID</text>
   <rect width="162" height="20" x="91" y="162" style="fill:none;stroke:black;"/>
   <text width="162" height="20" x="96" y="176" style="fill:black;" font-family="Arial" font-size="16px">process_detail_id</text>
   <rect width="162" height="20" x="91" y="182" style="fill:none;stroke:black;"/>
   <text width="162" height="20" x="96" y="196" style="fill:black;" font-family="Arial" font-size="16px">actual</text>
   <rect width="162" height="20" x="91" y="202" style="fill:none;stroke:black;"/>
   <text width="162" height="20" x="96" y="216" style="fill:black;" font-family="Arial" font-size="16px">absent</text>
   <rect width="162" height="20" x="91" y="222" style="fill:none;stroke:black;"/>
   <text width="162" height="20" x="96" y="236" style="fill:black;" font-family="Arial" font-size="16px">support</text>
   <rect width="162" height="20" x="91" y="242" style="fill:none;stroke:black;"/>
   <text width="162" height="20" x="96" y="256" style="fill:black;" font-family="Arial" font-size="16px">not_count</text>
   <rect width="162" height="20" x="91" y="262" style="fill:none;stroke:black;"/>
   <text width="162" height="20" x="96" y="276" style="fill:black;" font-family="Arial" font-size="16px">remarks</text>
   <rect width="162" height="20" x="91" y="282" style="fill:none;stroke:black;"/>
   <text width="162" height="20" x="96" y="296" style="fill:black;" font-family="Arial" font-size="16px">group_id</text>
   <rect width="162" height="20" x="91" y="302" style="fill:none;stroke:black;"/>
   <text width="162" height="20" x="96" y="316" style="fill:black;" font-family="Arial" font-size="16px">batch_id</text>
   <rect width="113" height="20" x="93" y="457" style="fill:#007;stroke:black;"/>
   <text width="113" height="20" x="98" y="471" style="fill:#fff;" font-family="Arial" font-size="16px"> eff_2_normal_wt</text>
   <rect width="113" height="20" x="93" y="477" style="fill:#aea;stroke:black;"/>
   <text width="113" height="20" x="98" y="491" style="fill:black;" font-family="Arial" font-size="16px">ID</text>
   <rect width="113" height="20" x="93" y="497" style="fill:none;stroke:black;"/>
   <text width="113" height="20" x="98" y="511" style="fill:black;" font-family="Arial" font-size="16px">wt</text>
   <rect width="113" height="20" x="93" y="517" style="fill:none;stroke:black;"/>
   <text width="113" height="20" x="98" y="531" style="fill:black;" font-family="Arial" font-size="16px">manpower</text>
   <rect width="113" height="20" x="93" y="537" style="fill:none;stroke:black;"/>
   <text width="113" height="20" x="98" y="551" style="fill:black;" font-family="Arial" font-size="16px">tm_mins</text>
   <rect width="113" height="20" x="93" y="557" style="fill:none;stroke:black;"/>
   <text width="113" height="20" x="98" y="571" style="fill:black;" font-family="Arial" font-size="16px">eff_result</text>
   <rect width="113" height="20" x="93" y="577" style="fill:none;stroke:black;"/>
   <text width="113" height="20" x="98" y="591" style="fill:black;" font-family="Arial" font-size="16px">wbreak</text>
   <rect width="113" height="20" x="93" y="597" style="fill:none;stroke:black;"/>
   <text width="113" height="20" x="98" y="611" style="fill:black;" font-family="Arial" font-size="16px">is_line</text>
   <rect width="113" height="20" x="93" y="617" style="fill:none;stroke:black;"/>
   <text width="113" height="20" x="98" y="631" style="fill:black;" font-family="Arial" font-size="16px">group_id</text>
   <rect width="113" height="20" x="93" y="637" style="fill:none;stroke:black;"/>
   <text width="113" height="20" x="98" y="651" style="fill:black;" font-family="Arial" font-size="16px">batch_id</text>
   <rect width="131" height="20" x="90" y="314" style="fill:#007;stroke:black;"/>
   <text width="131" height="20" x="95" y="328" style="fill:#fff;" font-family="Arial" font-size="16px"> eff_3_extended_wt</text>
   <rect width="131" height="20" x="90" y="334" style="fill:#aea;stroke:black;"/>
   <text width="131" height="20" x="95" y="348" style="fill:black;" font-family="Arial" font-size="16px">ID</text>
   <rect width="131" height="20" x="90" y="354" style="fill:none;stroke:black;"/>
   <text width="131" height="20" x="95" y="368" style="fill:black;" font-family="Arial" font-size="16px">mpcount_id</text>
   <rect width="131" height="20" x="90" y="374" style="fill:none;stroke:black;"/>
   <text width="131" height="20" x="95" y="388" style="fill:black;" font-family="Arial" font-size="16px">ot_60</text>
   <rect width="131" height="20" x="90" y="394" style="fill:none;stroke:black;"/>
   <text width="131" height="20" x="95" y="408" style="fill:black;" font-family="Arial" font-size="16px">ot_120</text>
   <rect width="131" height="20" x="90" y="414" style="fill:none;stroke:black;"/>
   <text width="131" height="20" x="95" y="428" style="fill:black;" font-family="Arial" font-size="16px">ot_180</text>
   <rect width="131" height="20" x="90" y="434" style="fill:none;stroke:black;"/>
   <text width="131" height="20" x="95" y="448" style="fill:black;" font-family="Arial" font-size="16px">is_line</text>
   <rect width="98" height="20" x="459" y="859" style="fill:#007;stroke:black;"/>
   <text width="98" height="20" x="464" y="873" style="fill:#fff;" font-family="Arial" font-size="16px"> eff_account</text>
   <rect width="98" height="20" x="459" y="879" style="fill:#aea;stroke:black;"/>
   <text width="98" height="20" x="464" y="893" style="fill:black;" font-family="Arial" font-size="16px">ID</text>
   <rect width="98" height="20" x="459" y="899" style="fill:none;stroke:black;"/>
   <text width="98" height="20" x="464" y="913" style="fill:black;" font-family="Arial" font-size="16px">name</text>
   <rect width="98" height="20" x="459" y="919" style="fill:none;stroke:black;"/>
   <text width="98" height="20" x="464" y="933" style="fill:black;" font-family="Arial" font-size="16px">username</text>
   <rect width="98" height="20" x="459" y="939" style="fill:none;stroke:black;"/>
   <text width="98" height="20" x="464" y="953" style="fill:black;" font-family="Arial" font-size="16px">password</text>
   <rect width="98" height="20" x="459" y="959" style="fill:none;stroke:black;"/>
   <text width="98" height="20" x="464" y="973" style="fill:black;" font-family="Arial" font-size="16px">car_model_id</text>
   <rect width="98" height="20" x="459" y="979" style="fill:none;stroke:black;"/>
   <text width="98" height="20" x="464" y="993" style="fill:black;" font-family="Arial" font-size="16px">shift_id</text>
   <rect width="98" height="20" x="459" y="999" style="fill:none;stroke:black;"/>
   <text width="98" height="20" x="464" y="1013" style="fill:black;" font-family="Arial" font-size="16px">dept_id</text>
   <rect width="98" height="20" x="459" y="1019" style="fill:none;stroke:black;"/>
   <text width="98" height="20" x="464" y="1033" style="fill:black;" font-family="Arial" font-size="16px">section_id</text>
   <rect width="98" height="20" x="459" y="1039" style="fill:none;stroke:black;"/>
   <text width="98" height="20" x="464" y="1053" style="fill:black;" font-family="Arial" font-size="16px">group_id</text>
   <rect width="98" height="20" x="459" y="1059" style="fill:none;stroke:black;"/>
   <text width="98" height="20" x="464" y="1073" style="fill:black;" font-family="Arial" font-size="16px">type</text>
   <rect width="125" height="20" x="783" y="1009" style="fill:#007;stroke:black;"/>
   <text width="125" height="20" x="788" y="1023" style="fill:#fff;" font-family="Arial" font-size="16px"> eff_account_type</text>
   <rect width="125" height="20" x="783" y="1029" style="fill:#aea;stroke:black;"/>
   <text width="125" height="20" x="788" y="1043" style="fill:black;" font-family="Arial" font-size="16px">ID</text>
   <rect width="125" height="20" x="783" y="1049" style="fill:none;stroke:black;"/>
   <text width="125" height="20" x="788" y="1063" style="fill:black;" font-family="Arial" font-size="16px">account_name</text>
   <rect width="139" height="20" x="452" y="393" style="fill:#007;stroke:black;"/>
   <text width="139" height="20" x="457" y="407" style="fill:#fff;" font-family="Arial" font-size="16px"> eff_batch_control</text>
   <rect width="139" height="20" x="452" y="413" style="fill:#aea;stroke:black;"/>
   <text width="139" height="20" x="457" y="427" style="fill:black;" font-family="Arial" font-size="16px">ID</text>
   <rect width="139" height="20" x="452" y="433" style="fill:none;stroke:black;"/>
   <text width="139" height="20" x="457" y="447" style="fill:black;" font-family="Arial" font-size="16px">date</text>
   <rect width="139" height="20" x="452" y="453" style="fill:none;stroke:black;"/>
   <text width="139" height="20" x="457" y="467" style="fill:black;" font-family="Arial" font-size="16px">group_id</text>
   <rect width="139" height="20" x="452" y="473" style="fill:none;stroke:black;"/>
   <text width="139" height="20" x="457" y="487" style="fill:black;" font-family="Arial" font-size="16px">cutting_plan</text>
   <rect width="139" height="20" x="452" y="493" style="fill:none;stroke:black;"/>
   <text width="139" height="20" x="457" y="507" style="fill:black;" font-family="Arial" font-size="16px">cutting_start_time</text>
   <rect width="139" height="20" x="452" y="513" style="fill:none;stroke:black;"/>
   <text width="139" height="20" x="457" y="527" style="fill:black;" font-family="Arial" font-size="16px">cutting_end_time</text>
   <rect width="139" height="20" x="452" y="533" style="fill:none;stroke:black;"/>
   <text width="139" height="20" x="457" y="547" style="fill:black;" font-family="Arial" font-size="16px">target_eff_line_480</text>
   <rect width="139" height="20" x="452" y="553" style="fill:none;stroke:black;"/>
   <text width="139" height="20" x="457" y="567" style="fill:black;" font-family="Arial" font-size="16px">target_eff_acct_480</text>
   <rect width="139" height="20" x="452" y="573" style="fill:none;stroke:black;"/>
   <text width="139" height="20" x="457" y="587" style="fill:black;" font-family="Arial" font-size="16px">target_eff_line_450</text>
   <rect width="139" height="20" x="452" y="593" style="fill:none;stroke:black;"/>
   <text width="139" height="20" x="457" y="607" style="fill:black;" font-family="Arial" font-size="16px">target_eff_acct_450</text>
   <rect width="139" height="20" x="452" y="613" style="fill:none;stroke:black;"/>
   <text width="139" height="20" x="457" y="627" style="fill:black;" font-family="Arial" font-size="16px">shift_id</text>
   <rect width="139" height="20" x="452" y="633" style="fill:none;stroke:black;"/>
   <text width="139" height="20" x="457" y="647" style="fill:black;" font-family="Arial" font-size="16px">car_model_id</text>
   <rect width="139" height="20" x="452" y="653" style="fill:none;stroke:black;"/>
   <text width="139" height="20" x="457" y="667" style="fill:black;" font-family="Arial" font-size="16px">account_id</text>
   <rect width="139" height="20" x="452" y="673" style="fill:none;stroke:black;"/>
   <text width="139" height="20" x="457" y="687" style="fill:black;" font-family="Arial" font-size="16px">process_id</text>
   <rect width="126" height="20" x="1091" y="240" style="fill:#007;stroke:black;"/>
   <text width="126" height="20" x="1096" y="254" style="fill:#fff;" font-family="Arial" font-size="16px"> eff_batch_group</text>
   <rect width="126" height="20" x="1091" y="260" style="fill:#aea;stroke:black;"/>
   <text width="126" height="20" x="1096" y="274" style="fill:black;" font-family="Arial" font-size="16px">ID</text>
   <rect width="126" height="20" x="1091" y="280" style="fill:none;stroke:black;"/>
   <text width="126" height="20" x="1096" y="294" style="fill:black;" font-family="Arial" font-size="16px">target_line_480</text>
   <rect width="126" height="20" x="1091" y="300" style="fill:none;stroke:black;"/>
   <text width="126" height="20" x="1096" y="314" style="fill:black;" font-family="Arial" font-size="16px">target_acctg_480</text>
   <rect width="126" height="20" x="1091" y="320" style="fill:none;stroke:black;"/>
   <text width="126" height="20" x="1096" y="334" style="fill:black;" font-family="Arial" font-size="16px">target_line_450</text>
   <rect width="126" height="20" x="1091" y="340" style="fill:none;stroke:black;"/>
   <text width="126" height="20" x="1096" y="354" style="fill:black;" font-family="Arial" font-size="16px">target_acctg_450</text>
   <rect width="126" height="20" x="1091" y="360" style="fill:none;stroke:black;"/>
   <text width="126" height="20" x="1096" y="374" style="fill:black;" font-family="Arial" font-size="16px">batch_id</text>
   <rect width="126" height="20" x="1091" y="380" style="fill:none;stroke:black;"/>
   <text width="126" height="20" x="1096" y="394" style="fill:black;" font-family="Arial" font-size="16px">group_id</text>
   <rect width="126" height="20" x="766" y="920" style="fill:#007;stroke:black;"/>
   <text width="126" height="20" x="771" y="934" style="fill:#fff;" font-family="Arial" font-size="16px"> eff_car_model</text>
   <rect width="126" height="20" x="766" y="940" style="fill:#aea;stroke:black;"/>
   <text width="126" height="20" x="771" y="954" style="fill:black;" font-family="Arial" font-size="16px">ID</text>
   <rect width="126" height="20" x="766" y="960" style="fill:none;stroke:black;"/>
   <text width="126" height="20" x="771" y="974" style="fill:black;" font-family="Arial" font-size="16px">car_model_name</text>
   <rect width="126" height="20" x="766" y="980" style="fill:none;stroke:black;"/>
   <text width="126" height="20" x="771" y="994" style="fill:black;" font-family="Arial" font-size="16px">car_code</text>
   <rect width="140" height="20" x="990" y="702" style="fill:#007;stroke:black;"/>
   <text width="140" height="20" x="995" y="716" style="fill:#fff;" font-family="Arial" font-size="16px"> eff_car_model_cycle</text>
   <rect width="140" height="20" x="990" y="722" style="fill:#aea;stroke:black;"/>
   <text width="140" height="20" x="995" y="736" style="fill:black;" font-family="Arial" font-size="16px">ID</text>
   <rect width="140" height="20" x="990" y="742" style="fill:none;stroke:black;"/>
   <text width="140" height="20" x="995" y="756" style="fill:black;" font-family="Arial" font-size="16px">car_model_id</text>
   <rect width="140" height="20" x="990" y="762" style="fill:none;stroke:black;"/>
   <text width="140" height="20" x="995" y="776" style="fill:black;" font-family="Arial" font-size="16px">shift_id</text>
   <rect width="140" height="20" x="990" y="782" style="fill:none;stroke:black;"/>
   <text width="140" height="20" x="995" y="796" style="fill:black;" font-family="Arial" font-size="16px">cycle</text>
   <rect width="127" height="20" x="91" y="653" style="fill:#007;stroke:black;"/>
   <text width="127" height="20" x="96" y="667" style="fill:#fff;" font-family="Arial" font-size="16px"> eff_downtime</text>
   <rect width="127" height="20" x="91" y="673" style="fill:#aea;stroke:black;"/>
   <text width="127" height="20" x="96" y="687" style="fill:black;" font-family="Arial" font-size="16px">ID</text>
   <rect width="127" height="20" x="91" y="693" style="fill:none;stroke:black;"/>
   <text width="127" height="20" x="96" y="707" style="fill:black;" font-family="Arial" font-size="16px">reason_id</text>
   <rect width="127" height="20" x="91" y="713" style="fill:none;stroke:black;"/>
   <text width="127" height="20" x="96" y="727" style="fill:black;" font-family="Arial" font-size="16px">part_wire</text>
   <rect width="127" height="20" x="91" y="733" style="fill:none;stroke:black;"/>
   <text width="127" height="20" x="96" y="747" style="fill:black;" font-family="Arial" font-size="16px">part_term_front</text>
   <rect width="127" height="20" x="91" y="753" style="fill:none;stroke:black;"/>
   <text width="127" height="20" x="96" y="767" style="fill:black;" font-family="Arial" font-size="16px">part_term_rear</text>
   <rect width="127" height="20" x="91" y="773" style="fill:none;stroke:black;"/>
   <text width="127" height="20" x="96" y="787" style="fill:black;" font-family="Arial" font-size="16px">pic_id</text>
   <rect width="127" height="20" x="91" y="793" style="fill:none;stroke:black;"/>
   <text width="127" height="20" x="96" y="807" style="fill:black;" font-family="Arial" font-size="16px">process_detail_id</text>
   <rect width="127" height="20" x="91" y="813" style="fill:none;stroke:black;"/>
   <text width="127" height="20" x="96" y="827" style="fill:black;" font-family="Arial" font-size="16px">dimension</text>
   <rect width="127" height="20" x="91" y="833" style="fill:none;stroke:black;"/>
   <text width="127" height="20" x="96" y="847" style="fill:black;" font-family="Arial" font-size="16px">time_start</text>
   <rect width="127" height="20" x="91" y="853" style="fill:none;stroke:black;"/>
   <text width="127" height="20" x="96" y="867" style="fill:black;" font-family="Arial" font-size="16px">time_end</text>
   <rect width="127" height="20" x="91" y="873" style="fill:none;stroke:black;"/>
   <text width="127" height="20" x="96" y="887" style="fill:black;" font-family="Arial" font-size="16px">time_total</text>
   <rect width="127" height="20" x="91" y="893" style="fill:none;stroke:black;"/>
   <text width="127" height="20" x="96" y="907" style="fill:black;" font-family="Arial" font-size="16px">mp_r1</text>
   <rect width="127" height="20" x="91" y="913" style="fill:none;stroke:black;"/>
   <text width="127" height="20" x="96" y="927" style="fill:black;" font-family="Arial" font-size="16px">mp_r3</text>
   <rect width="127" height="20" x="91" y="933" style="fill:none;stroke:black;"/>
   <text width="127" height="20" x="96" y="947" style="fill:black;" font-family="Arial" font-size="16px">group_id</text>
   <rect width="127" height="20" x="91" y="953" style="fill:none;stroke:black;"/>
   <text width="127" height="20" x="96" y="967" style="fill:black;" font-family="Arial" font-size="16px">batch_id</text>
   <rect width="96" height="20" x="480" y="198" style="fill:#007;stroke:black;"/>
   <text width="96" height="20" x="485" y="212" style="fill:#fff;" font-family="Arial" font-size="16px"> eff_group</text>
   <rect width="96" height="20" x="480" y="218" style="fill:#aea;stroke:black;"/>
   <text width="96" height="20" x="485" y="232" style="fill:black;" font-family="Arial" font-size="16px">ID</text>
   <rect width="96" height="20" x="480" y="238" style="fill:none;stroke:black;"/>
   <text width="96" height="20" x="485" y="252" style="fill:black;" font-family="Arial" font-size="16px">group_name</text>
   <rect width="75" height="20" x="86" y="1019" style="fill:#007;stroke:black;"/>
   <text width="75" height="20" x="91" y="1033" style="fill:#fff;" font-family="Arial" font-size="16px"> eff_pic</text>
   <rect width="75" height="20" x="86" y="1039" style="fill:#aea;stroke:black;"/>
   <text width="75" height="20" x="91" y="1053" style="fill:black;" font-family="Arial" font-size="16px">id</text>
   <rect width="75" height="20" x="86" y="1059" style="fill:none;stroke:black;"/>
   <text width="75" height="20" x="91" y="1073" style="fill:black;" font-family="Arial" font-size="16px">pic_name</text>
   <rect width="111" height="20" x="394" y="28" style="fill:#007;stroke:black;"/>
   <text width="111" height="20" x="399" y="42" style="fill:#fff;" font-family="Arial" font-size="16px"> eff_process</text>
   <rect width="111" height="20" x="394" y="48" style="fill:#aea;stroke:black;"/>
   <text width="111" height="20" x="399" y="62" style="fill:black;" font-family="Arial" font-size="16px">ID</text>
   <rect width="111" height="20" x="394" y="68" style="fill:none;stroke:black;"/>
   <text width="111" height="20" x="399" y="82" style="fill:black;" font-family="Arial" font-size="16px">process_name</text>
   <rect width="154" height="20" x="92" y="10" style="fill:#007;stroke:black;"/>
   <text width="154" height="20" x="97" y="24" style="fill:#fff;" font-family="Arial" font-size="16px"> eff_process_detail</text>
   <rect width="154" height="20" x="92" y="30" style="fill:#aea;stroke:black;"/>
   <text width="154" height="20" x="97" y="44" style="fill:black;" font-family="Arial" font-size="16px">ID</text>
   <rect width="154" height="20" x="92" y="50" style="fill:none;stroke:black;"/>
   <text width="154" height="20" x="97" y="64" style="fill:black;" font-family="Arial" font-size="16px">process_detail_name</text>
   <rect width="154" height="20" x="92" y="70" style="fill:none;stroke:black;"/>
   <text width="154" height="20" x="97" y="84" style="fill:black;" font-family="Arial" font-size="16px">not_count</text>
   <rect width="154" height="20" x="92" y="90" style="fill:none;stroke:black;"/>
   <text width="154" height="20" x="97" y="104" style="fill:black;" font-family="Arial" font-size="16px">process_id</text>
   <rect width="114" height="20" x="1142" y="18" style="fill:#007;stroke:black;"/>
   <text width="114" height="20" x="1147" y="32" style="fill:#fff;" font-family="Arial" font-size="16px"> eff_product_rep</text>
   <rect width="114" height="20" x="1142" y="38" style="fill:#aea;stroke:black;"/>
   <text width="114" height="20" x="1147" y="52" style="fill:black;" font-family="Arial" font-size="16px">ID</text>
   <rect width="114" height="20" x="1142" y="58" style="fill:none;stroke:black;"/>
   <text width="114" height="20" x="1147" y="72" style="fill:black;" font-family="Arial" font-size="16px">product_no</text>
   <rect width="114" height="20" x="1142" y="78" style="fill:none;stroke:black;"/>
   <text width="114" height="20" x="1147" y="92" style="fill:black;" font-family="Arial" font-size="16px">std_time</text>
   <rect width="114" height="20" x="1142" y="98" style="fill:none;stroke:black;"/>
   <text width="114" height="20" x="1147" y="112" style="fill:black;" font-family="Arial" font-size="16px">output_qty</text>
   <rect width="114" height="20" x="1142" y="118" style="fill:none;stroke:black;"/>
   <text width="114" height="20" x="1147" y="132" style="fill:black;" font-family="Arial" font-size="16px">output_min</text>
   <rect width="114" height="20" x="1142" y="138" style="fill:none;stroke:black;"/>
   <text width="114" height="20" x="1147" y="152" style="fill:black;" font-family="Arial" font-size="16px">group_id</text>
   <rect width="114" height="20" x="1142" y="158" style="fill:none;stroke:black;"/>
   <text width="114" height="20" x="1147" y="172" style="fill:black;" font-family="Arial" font-size="16px">batch_id</text>
   <rect width="103" height="20" x="443" y="1081" style="fill:#007;stroke:black;"/>
   <text width="103" height="20" x="448" y="1095" style="fill:#fff;" font-family="Arial" font-size="16px"> eff_product_st</text>
   <rect width="103" height="20" x="443" y="1101" style="fill:#aea;stroke:black;"/>
   <text width="103" height="20" x="448" y="1115" style="fill:black;" font-family="Arial" font-size="16px">ID</text>
   <rect width="103" height="20" x="443" y="1121" style="fill:none;stroke:black;"/>
   <text width="103" height="20" x="448" y="1135" style="fill:black;" font-family="Arial" font-size="16px">product_no</text>
   <rect width="103" height="20" x="443" y="1141" style="fill:none;stroke:black;"/>
   <text width="103" height="20" x="448" y="1155" style="fill:black;" font-family="Arial" font-size="16px">st</text>
   <rect width="103" height="20" x="443" y="1161" style="fill:none;stroke:black;"/>
   <text width="103" height="20" x="448" y="1175" style="fill:black;" font-family="Arial" font-size="16px">updated_by</text>
   <rect width="103" height="20" x="443" y="1181" style="fill:none;stroke:black;"/>
   <text width="103" height="20" x="448" y="1195" style="fill:black;" font-family="Arial" font-size="16px">last_update</text>
   <rect width="80" height="20" x="89" y="948" style="fill:#007;stroke:black;"/>
   <text width="80" height="20" x="94" y="962" style="fill:#fff;" font-family="Arial" font-size="16px"> eff_reason</text>
   <rect width="80" height="20" x="89" y="968" style="fill:#aea;stroke:black;"/>
   <text width="80" height="20" x="94" y="982" style="fill:black;" font-family="Arial" font-size="16px">ID</text>
   <rect width="80" height="20" x="89" y="988" style="fill:none;stroke:black;"/>
   <text width="80" height="20" x="94" y="1002" style="fill:black;" font-family="Arial" font-size="16px">reason</text>
   <rect width="79" height="20" x="502" y="729" style="fill:#007;stroke:black;"/>
   <text width="79" height="20" x="507" y="743" style="fill:#fff;" font-family="Arial" font-size="16px"> eff_shift</text>
   <rect width="79" height="20" x="502" y="749" style="fill:#aea;stroke:black;"/>
   <text width="79" height="20" x="507" y="763" style="fill:black;" font-family="Arial" font-size="16px">ID</text>
   <rect width="79" height="20" x="502" y="769" style="fill:none;stroke:black;"/>
   <text width="79" height="20" x="507" y="783" style="fill:black;" font-family="Arial" font-size="16px">shift</text>
   <rect width="79" height="20" x="502" y="789" style="fill:none;stroke:black;"/>
   <text width="79" height="20" x="507" y="803" style="fill:black;" font-family="Arial" font-size="16px">shift_code</text>
   <rect width="119" height="20" x="1134" y="1096" style="fill:#007;stroke:black;"/>
   <text width="119" height="20" x="1139" y="1110" style="fill:#fff;" font-family="Arial" font-size="16px"> eff_working_time</text>
   <rect width="119" height="20" x="1134" y="1116" style="fill:#aea;stroke:black;"/>
   <text width="119" height="20" x="1139" y="1130" style="fill:black;" font-family="Arial" font-size="16px">ID</text>
   <rect width="119" height="20" x="1134" y="1136" style="fill:none;stroke:black;"/>
   <text width="119" height="20" x="1139" y="1150" style="fill:black;" font-family="Arial" font-size="16px">time</text>
   <rect width="119" height="20" x="1134" y="1156" style="fill:none;stroke:black;"/>
   <text width="119" height="20" x="1139" y="1170" style="fill:black;" font-family="Arial" font-size="16px">value</text>
   <rect width="119" height="20" x="1134" y="1176" style="fill:none;stroke:black;"/>
   <text width="119" height="20" x="1139" y="1190" style="fill:black;" font-family="Arial" font-size="16px">wobreak</text>
   <rect width="119" height="20" x="1134" y="1196" style="fill:none;stroke:black;"/>
   <text width="119" height="20" x="1139" y="1210" style="fill:black;" font-family="Arial" font-size="16px">wbreak</text>
</svg>
